<svg width="138" height="30" viewBox="0 0 138 30" fill="none" xmlns="http://www.w3.org/2000/svg">
<path d="M9.15625 23.6538L10.7062 17.0125L5.5525 12.5475L12.3412 11.96L15 5.69629L17.6587 11.9588L24.4462 12.5463L19.2925 17.0113L20.8437 23.6525L15 20.1275L9.15625 23.6538Z" fill="#EAFF00"/>
<path d="M33.1563 23.6538L34.7063 17.0125L29.5525 12.5475L36.3413 11.96L39 5.69629L41.6588 11.9588L48.4463 12.5463L43.2925 17.0113L44.8438 23.6525L39 20.1275L33.1563 23.6538Z" fill="#EAFF00"/>
<path d="M57.1563 23.6538L58.7063 17.0125L53.5525 12.5475L60.3413 11.96L63 5.69629L65.6588 11.9588L72.4463 12.5463L67.2925 17.0113L68.8438 23.6525L63 20.1275L57.1563 23.6538Z" fill="#EAFF00"/>
<path d="M78.1563 23.6538L79.7063 17.0125L74.5525 12.5475L81.3413 11.96L84 5.69629L86.6588 11.9588L93.4463 12.5463L88.2925 17.0113L89.8438 23.6525L84 20.1275L78.1563 23.6538Z" fill="#EAFF00"/>
<path d="M102.156 23.6538L103.706 17.0125L98.5525 12.5475L105.341 11.96L108 5.69629L110.659 11.9588L117.446 12.5463L112.293 17.0113L113.844 23.6525L108 20.1275L102.156 23.6538Z" fill="#DCDCDC"/>
</svg>
