<svg xmlns="http://www.w3.org/2000/svg" viewBox="0 0 241.01 145.71"><defs><style>.cls-1{fill:#fff;}</style></defs><title>Asset 1</title><g id="Layer_2" data-name="Layer 2"><g id="Layer_1-2" data-name="Layer 1"><path class="cls-1" d="M117.36,143.74S250.67,163.83,240.45.21c0,0-75.35-5.42-115.26,38.49,0,0-42,41.13-13.83,102.17,0,0,62.35-55.3,100.44-109.56C211.8,31.31,191.71,82.7,117.36,143.74Z"/><path class="cls-1" d="M92.22,144S-11.47,167.76,1.05,37.45c0,0,47.35-5.86,79.43,32.09,0,0,26.51,27,14.38,67.7,0,0-14-33.07-73.46-76.89C21.4,60.35,84.79,122.82,92.22,144Z"/></g></g></svg>