<svg width="41" height="40" viewBox="0 0 41 40" fill="none" xmlns="http://www.w3.org/2000/svg">
<path fill-rule="evenodd" clip-rule="evenodd" d="M14.5301 5.41667C14.9967 4.43333 16.0034 3.75 17.1667 3.75H23.8334C24.9967 3.75 26.0017 4.43333 26.4701 5.41667C27.6084 5.42667 28.4967 5.47833 29.2901 5.78833C30.2371 6.15879 31.0607 6.78835 31.6667 7.605C32.2784 8.42833 32.5667 9.48333 32.9601 10.935L34.1967 15.4717L34.6634 16.8733L34.7034 16.9233C36.2051 18.8467 35.4901 21.7067 34.0601 27.425C33.1501 31.0633 32.6967 32.8817 31.3401 33.9417C29.9834 35 28.1084 35 24.3584 35H16.6417C12.8917 35 11.0167 35 9.66005 33.9417C8.30339 32.8817 7.84839 31.0633 6.94005 27.425C5.51005 21.7067 4.79505 18.8467 6.29672 16.9233L6.33672 16.8733L6.80339 15.4717L8.04005 10.935C8.43505 9.48333 8.72339 8.42667 9.33339 7.60333C9.9396 6.7873 10.7632 6.15833 11.7101 5.78833C12.5034 5.47833 13.3901 5.425 14.5301 5.41667ZM14.5334 7.92167C13.4301 7.93333 12.9867 7.975 12.6201 8.11833C12.11 8.3178 11.6664 8.65685 11.3401 9.09667C11.0467 9.49167 10.8734 10.0433 10.3901 11.8217L9.44005 15.3033C11.1401 15 13.4634 15 16.6401 15H24.3584C27.5367 15 29.8584 15 31.5584 15.3L30.6101 11.8183C30.1267 10.04 29.9534 9.48833 29.6601 9.09333C29.3337 8.65351 28.8901 8.31447 28.3801 8.115C28.0134 7.97167 27.5701 7.93 26.4667 7.91833C26.2301 8.41641 25.8571 8.8372 25.391 9.1319C24.9249 9.42659 24.3848 9.58312 23.8334 9.58333H17.1667C16.6155 9.58327 16.0755 9.42699 15.6094 9.1326C15.1434 8.83821 14.7703 8.41943 14.5334 7.92167Z" fill="#F5F8F5"/>
</svg>
