<svg width="42" height="43" viewBox="0 0 42 43" fill="none" xmlns="http://www.w3.org/2000/svg">
<g clip-path="url(#clip0_645_716)">
<path d="M32.1562 0.193359H9.84375C4.4072 0.193359 0 4.60056 0 10.0371V32.3496C0 37.7862 4.4072 42.1934 9.84375 42.1934H32.1562C37.5928 42.1934 42 37.7862 42 32.3496V10.0371C42 4.60056 37.5928 0.193359 32.1562 0.193359Z" fill="url(#paint0_radial_645_716)"/>
<path d="M32.1562 0.193359H9.84375C4.4072 0.193359 0 4.60056 0 10.0371V32.3496C0 37.7862 4.4072 42.1934 9.84375 42.1934H32.1562C37.5928 42.1934 42 37.7862 42 32.3496V10.0371C42 4.60056 37.5928 0.193359 32.1562 0.193359Z" fill="url(#paint1_radial_645_716)"/>
<path d="M21.0015 4.78711C16.5459 4.78711 15.9866 4.80663 14.2367 4.8862C12.4901 4.96627 11.2978 5.24271 10.2547 5.64844C9.17552 6.06745 8.26022 6.62805 7.34836 7.54024C6.43568 8.45227 5.87508 9.36757 5.45475 10.4463C5.04788 11.4897 4.7711 12.6825 4.69252 14.4282C4.61426 16.1783 4.59375 16.7378 4.59375 21.1935C4.59375 25.6493 4.61344 26.2068 4.69284 27.9567C4.77323 29.7033 5.04968 30.8955 5.45508 31.9386C5.87442 33.0178 6.43502 33.9331 7.34721 34.845C8.25891 35.7577 9.17421 36.3196 10.2526 36.7386C11.2965 37.1443 12.4889 37.4208 14.2352 37.5008C15.9853 37.5804 16.5441 37.5999 20.9995 37.5999C25.4556 37.5999 26.0131 37.5804 27.763 37.5008C29.5096 37.4208 30.7031 37.1443 31.7471 36.7386C32.8258 36.3196 33.7398 35.7577 34.6513 34.845C35.564 33.9331 36.1244 33.0178 36.5449 31.9391C36.9482 30.8955 37.2251 29.703 37.3072 27.957C37.3857 26.2071 37.4062 25.6493 37.4062 21.1935C37.4062 16.7378 37.3857 16.1786 37.3072 14.4286C37.2251 12.682 36.9482 11.4899 36.5449 10.4468C36.1244 9.36757 35.564 8.45227 34.6513 7.54024C33.7388 6.62773 32.8261 6.06712 31.7461 5.6486C30.7002 5.24271 29.5073 4.9661 27.7607 4.8862C26.0106 4.80663 25.4535 4.78711 20.9964 4.78711H21.0015ZM19.5297 7.74368C19.9666 7.74302 20.454 7.74368 21.0015 7.74368C25.3821 7.74368 25.9012 7.75943 27.6311 7.83802C29.2307 7.91119 30.0989 8.17845 30.6772 8.40305C31.4429 8.70033 31.9887 9.05585 32.5626 9.63023C33.1369 10.2045 33.4922 10.7513 33.7903 11.517C34.0149 12.0945 34.2825 12.9627 34.3553 14.5623C34.4339 16.2918 34.451 16.8112 34.451 21.1897C34.451 25.5682 34.4339 26.0878 34.3553 27.8172C34.2822 29.4168 34.0149 30.285 33.7903 30.8627C33.493 31.6284 33.1369 32.1736 32.5626 32.7475C31.9884 33.3217 31.4432 33.677 30.6772 33.9745C30.0996 34.2001 29.2307 34.4667 27.6311 34.5398C25.9015 34.6184 25.3821 34.6355 21.0015 34.6355C16.6207 34.6355 16.1014 34.6184 14.372 34.5398C12.7724 34.466 11.9042 34.1988 11.3254 33.9742C10.5599 33.6767 10.0129 33.3214 9.43868 32.7471C8.86446 32.1729 8.5091 31.6274 8.211 30.8614C7.9864 30.2837 7.71881 29.4155 7.64597 27.8159C7.56738 26.0864 7.55163 25.5669 7.55163 21.1856C7.55163 16.8044 7.56738 16.2877 7.64597 14.5582C7.71914 12.9586 7.9864 12.0904 8.211 11.512C8.50845 10.7464 8.86446 10.1995 9.43884 9.62531C10.0132 9.05109 10.5599 8.69557 11.3256 8.39763C11.9039 8.17205 12.7724 7.90545 14.372 7.83194C15.8855 7.76353 16.472 7.74302 19.5297 7.73958V7.74368ZM29.7591 10.4678C28.6722 10.4678 27.7904 11.3488 27.7904 12.4359C27.7904 13.5228 28.6722 14.4046 29.7591 14.4046C30.846 14.4046 31.7279 13.5228 31.7279 12.4359C31.7279 11.349 30.846 10.4671 29.7591 10.4671V10.4678ZM21.0015 12.7681C16.3487 12.7681 12.5762 16.5405 12.5762 21.1935C12.5762 25.8465 16.3487 29.6171 21.0015 29.6171C25.6545 29.6171 29.4256 25.8465 29.4256 21.1935C29.4256 16.5407 25.6541 12.7681 21.0011 12.7681H21.0015ZM21.0015 15.7247C24.0217 15.7247 26.4703 18.173 26.4703 21.1935C26.4703 24.2138 24.0217 26.6624 21.0015 26.6624C17.9813 26.6624 15.5328 24.2138 15.5328 21.1935C15.5328 18.173 17.9811 15.7247 21.0015 15.7247Z" fill="white"/>
</g>
<defs>
<radialGradient id="paint0_radial_645_716" cx="0" cy="0" r="1" gradientUnits="userSpaceOnUse" gradientTransform="translate(11.1562 45.4282) rotate(-90) scale(41.6251 38.7146)">
<stop stop-color="#FFDD55"/>
<stop offset="0.1" stop-color="#FFDD55"/>
<stop offset="0.5" stop-color="#FF543E"/>
<stop offset="1" stop-color="#C837AB"/>
</radialGradient>
<radialGradient id="paint1_radial_645_716" cx="0" cy="0" r="1" gradientUnits="userSpaceOnUse" gradientTransform="translate(-7.03516 3.21884) rotate(78.681) scale(18.6067 76.6972)">
<stop stop-color="#3771C8"/>
<stop offset="0.128" stop-color="#3771C8"/>
<stop offset="1" stop-color="#6600FF" stop-opacity="0"/>
</radialGradient>
<clipPath id="clip0_645_716">
<rect width="42" height="42" fill="white" transform="translate(0 0.193359)"/>
</clipPath>
</defs>
</svg>
