<svg width="42" height="43" viewBox="0 0 42 43" fill="none" xmlns="http://www.w3.org/2000/svg">
<g clip-path="url(#clip0_320_2587)">
<path d="M0.895547 20.9421C0.894562 24.4709 1.82381 27.9166 3.59077 30.9536L0.726562 41.3302L11.4287 38.5458C14.3888 40.1447 17.7053 40.9825 21.0756 40.9828H21.0844C32.2103 40.9828 41.2671 31.9995 41.2718 20.9579C41.2739 15.6075 39.1759 10.5763 35.3641 6.79105C31.5529 3.00617 26.4842 0.920655 21.0836 0.918213C9.95639 0.918213 0.900305 9.901 0.895711 20.9421" fill="url(#paint0_linear_320_2587)"/>
<path d="M0.175547 20.9355C0.174398 24.5913 1.13695 28.1601 2.96691 31.3059L0 42.0545L11.0859 39.1703C14.1404 40.8228 17.5795 41.6941 21.0789 41.6954H21.0879C32.613 41.6954 41.9951 32.389 42 20.9521C42.002 15.4094 39.8285 10.1973 35.8805 6.27652C31.932 2.3562 26.682 0.195638 21.0879 0.193359C9.56091 0.193359 0.180141 9.49848 0.175547 20.9355ZM6.77759 30.7642L6.36366 30.1122C4.62361 27.3669 3.70519 24.1944 3.7065 20.9368C3.71011 11.4306 11.507 3.69662 21.0945 3.69662C25.7375 3.69857 30.1009 5.49448 33.3828 8.75289C36.6645 12.0116 38.4704 16.3435 38.4692 20.9508C38.4649 30.457 30.6679 38.192 21.0879 38.192H21.081C17.9617 38.1903 14.9025 37.3591 12.2345 35.7884L11.5995 35.4148L5.02097 37.1262L6.77759 30.7642Z" fill="#60D669"/>
<path d="M15.8622 12.2639C15.4707 11.4006 15.0588 11.3832 14.6865 11.368C14.3817 11.355 14.0332 11.356 13.6851 11.356C13.3366 11.356 12.7704 11.486 12.2919 12.0045C11.8128 12.5235 10.4629 13.7776 10.4629 16.3284C10.4629 18.8792 12.3353 21.3445 12.5964 21.6907C12.8577 22.0363 16.2111 27.4384 21.5222 29.5166C25.9361 31.2436 26.8344 30.9001 27.7923 30.8135C28.7504 30.7273 30.8839 29.5597 31.3192 28.349C31.7548 27.1385 31.7548 26.1009 31.6242 25.8841C31.4936 25.668 31.1451 25.5383 30.6226 25.2791C30.1 25.02 27.531 23.7655 27.0521 23.5925C26.573 23.4196 26.2247 23.3333 25.8762 23.8524C25.5278 24.3708 24.5271 25.5383 24.2222 25.8841C23.9175 26.2306 23.6125 26.2738 23.0901 26.0145C22.5673 25.7543 20.8845 25.2075 18.888 23.4414C17.3346 22.0671 16.286 20.37 15.9811 19.8509C15.6763 19.3326 15.9485 19.0516 16.2105 18.7932C16.4453 18.5609 16.7332 18.1878 16.9947 17.8852C17.2552 17.5824 17.3422 17.3664 17.5164 17.0206C17.6908 16.6745 17.6035 16.3717 17.4731 16.1124C17.3422 15.8531 16.3268 13.289 15.8622 12.2639Z" fill="white"/>
</g>
<defs>
<linearGradient id="paint0_linear_320_2587" x1="2027.99" y1="4042.12" x2="2027.99" y2="0.918213" gradientUnits="userSpaceOnUse">
<stop stop-color="#1FAF38"/>
<stop offset="1" stop-color="#60D669"/>
</linearGradient>
<clipPath id="clip0_320_2587">
<rect width="42" height="42" fill="white" transform="translate(0 0.193359)"/>
</clipPath>
</defs>
</svg>
